<svg width="21" height="20" viewBox="0 0 21 20" fill="none" xmlns="http://www.w3.org/2000/svg">
<path d="M10.5 0C5.20996 0 0.916626 4.29333 0.916626 9.58333C0.916626 14.8733 5.20996 19.1667 10.5 19.1667C15.79 19.1667 20.0833 14.8733 20.0833 9.58333C20.0833 4.29333 15.79 0 10.5 0ZM10.5 17.25C6.27371 17.25 2.83329 13.8096 2.83329 9.58333C2.83329 5.35708 6.27371 1.91667 10.5 1.91667C14.7262 1.91667 18.1666 5.35708 18.1666 9.58333C18.1666 13.8096 14.7262 17.25 10.5 17.25ZM14.8987 5.3475L8.58329 11.6629L6.10121 9.19042L4.74996 10.5417L8.58329 14.375L16.25 6.70833L14.8987 5.3475Z" fill="#DADADA"/>
</svg>
